<svg width="24" height="31" viewBox="0 0 24 31" fill="none" xmlns="http://www.w3.org/2000/svg">
<path d="M3.13694 18.7034L3.13692 18.7034L3.13791 18.7046L11.9502 29.9452L12.0092 30.0205L12.0682 29.9452L20.8695 18.719L20.87 18.7184L20.881 18.704L20.8815 18.7034C23.0473 15.8156 23.6557 12.1143 22.5525 8.55048C21.5151 5.19872 18.8206 2.48164 15.5188 1.45906C12.0063 0.37132 8.34248 0.961533 5.46841 3.0802C4.09154 4.09515 2.94912 5.43376 2.16451 6.95143C1.35354 8.52012 0.925 10.286 0.925 12.0584C0.925 14.4761 1.6899 16.7742 3.13694 18.7034ZM19.4116 17.5902L12.0092 27.0331L4.60665 17.5902C4.60649 17.59 4.60633 17.5898 4.60617 17.5896C3.4041 15.9834 2.76875 14.0712 2.76875 12.0584C2.76875 9.11721 4.18694 6.31544 6.56244 4.56432C8.95902 2.79765 12.0241 2.30701 14.9734 3.22029C17.701 4.06498 19.931 6.31637 20.7914 9.0956C21.7174 12.0877 21.2137 15.1824 19.4121 17.5896C19.412 17.5898 19.4118 17.59 19.4116 17.5902Z" fill="#004E97" stroke="#004E97" stroke-width="0.15"/>
<path d="M12.01 6.05586C8.69993 6.05586 6.00703 8.74876 6.00703 12.0589C6.00703 15.369 8.69993 18.0619 12.01 18.0619C15.3201 18.0619 18.013 15.369 18.013 12.0589C18.013 8.74876 15.3201 6.05586 12.01 6.05586ZM12.01 16.2182C9.71668 16.2182 7.85072 14.3523 7.85072 12.0589C7.85072 9.76551 9.71662 7.89955 12.01 7.89955C14.3034 7.89955 16.1693 9.76545 16.1693 12.0589C16.1693 14.3522 14.3034 16.2182 12.01 16.2182Z" fill="#004E97" stroke="#004E97" stroke-width="0.15"/>
</svg>
