<svg width="48" height="48" viewBox="0 0 48 48" fill="none" xmlns="http://www.w3.org/2000/svg">
<g id="Vimeo">
<g id="Vimeo_2">
<rect id="Rectangle" width="48" height="48" rx="24" fill="#1AB7EA"/>
<path id="Path" d="M38.258 18.0613C38.1237 21.0084 36.0642 25.0457 32.0834 30.1691C27.9682 35.5204 24.4858 38.1969 21.6359 38.1969C19.8723 38.1969 18.3793 36.5676 17.1588 33.3071C16.3451 30.319 15.5295 27.3329 14.7158 24.3449C13.8106 21.0863 12.8393 19.455 11.7998 19.455C11.574 19.455 10.7797 19.932 9.42297 20.8819L8 19.0463C9.49304 17.7343 10.9666 16.4203 12.4168 15.1044C14.4102 13.3836 15.9051 12.4765 16.9038 12.385C19.2591 12.1592 20.7094 13.771 21.2544 17.2184C21.8423 20.9403 22.2491 23.2548 22.4769 24.16C23.1562 27.2473 23.9037 28.789 24.7194 28.789C25.354 28.789 26.3058 27.7865 27.575 25.7854C28.8423 23.7823 29.5216 22.2582 29.6131 21.2128C29.7942 19.4842 29.1148 18.618 27.575 18.618C26.8489 18.618 26.1015 18.7835 25.3345 19.1144C26.8217 14.2401 29.6637 11.8711 33.8606 12.0054C36.9713 12.0969 38.4371 14.1155 38.258 18.0613Z" fill="white"/>
</g>
</g>
</svg>
